<svg width="50" height="50" viewBox="0 0 50 50" xmlns="http://www.w3.org/2000/svg">
    <defs>
        <linearGradient x1="0%" y1="0%" x2="100%" y2="100%" id="ga8iwj8gha">
            <stop stop-color="#3CECD1" offset="0%"/>
            <stop stop-color="#7159FF" offset="100%"/>
        </linearGradient>
    </defs>
    <path d="M24.994 50C11.917 50 1.05 39.918.07 26.873H40.14l-4.53 4.531a1.007 1.007 0 0 0 1.423 1.424l6.18-6.181a1.006 1.006 0 0 0 0-1.425l-6.18-6.18a1.006 1.006 0 1 0-1.423 1.423l4.53 4.531H0C.008 13.104 8.386 2.862 20.037.5 31.69-1.86 43.391 4.312 48.025 15.264a25.004 25.004 0 0 1-2.19 23.556A24.985 24.985 0 0 1 24.996 50z" fill="url(#ga8iwj8gha)" fill-rule="nonzero"/>
</svg>
