<svg width="50" height="50" viewBox="0 0 50 50" xmlns="http://www.w3.org/2000/svg">
    <defs>
        <linearGradient x1="0%" y1="0%" x2="100%" y2="100%" id="ui81l7z70a">
            <stop stop-color="#3CECD1" offset="0%"/>
            <stop stop-color="#7159FF" offset="100%"/>
        </linearGradient>
    </defs>
    <path d="M24.998 50C11.942 49.999 1.085 40.126.071 27.333l2.508 2.508a.936.936 0 0 0 1.488.223l6.87-6.869 6.643 6.646a.935.935 0 0 0 1.489.223l6.868-6.869 6.641 6.643a.936.936 0 0 0 1.49.225l7.454-7.455v6.757c0 .546.45.989 1.006.989a.998.998 0 0 0 1.007-.99v-8.742a1.001 1.001 0 0 0-1.007-1.006h-8.74a1.015 1.015 0 0 0-.993 1.007c0 .543.44.99.992 1.006h6.06l-6.41 6.415-6.867-6.867a.935.935 0 0 0-1.488.222l-6.645 6.646-6.866-6.868a.934.934 0 0 0-1.323 0 .948.948 0 0 0-.166.223l-6.647 6.645L0 24.607v-.044C.008 12.877 8.387 2.813 20.04.493 31.693-1.83 43.398 4.233 48.035 14.993A24.056 24.056 0 0 1 50 24.56v.866c.006 6.519-2.625 12.773-7.315 17.383-4.69 4.61-11.053 7.197-17.687 7.192z" fill="url(#ui81l7z70a)" fill-rule="nonzero"/>
</svg>
