<svg width="20" height="23" viewBox="0 0 20 23" xmlns="http://www.w3.org/2000/svg"><g fill="none"><path fill="#7159FF" d="M10.062 14.84l3.097 4.98 2.861-1.698-4.068-6.568zm8.564 1.284l-.002-1.36-4.445-7.092-1.65 2.866 4.292 7.109 1.551-.921a.71.71 0 00.254-.513v-.089z"/><path d="M0 17.408L2.19 18.7 9.482 6.725 8.244 6.69c-1.054-.015-2.19.266-2.711 1.137L1.393 14.4 0 16.593v.815zM13.69 6.725l-3.262.012-7.378 12.47 2.58 1.521.7-1.218z" fill="#131313"/><path d="M20 6.707a2.138 2.138 0 00-.975-1.71L10.918.221a2.064 2.064 0 00-1.86 0C8.99.256 1.174 4.9 1.174 4.9A2.125 2.125 0 000 6.704v9.89L1.393 14.4 1.38 6.77a.705.705 0 01.287-.53c.036-.027 7.986-4.74 8.011-4.754a.69.69 0 01.611-.003l8.003 4.715c.19.123.308.333.318.562v9.453a.696.696 0 01-.239.513l-1.551.92-.8.476-2.862 1.698-2.902 1.723a.688.688 0 01-.494-.01L6.33 19.51l-.701 1.218 3.085 1.82a53.137 53.137 0 00.49.28c.219.109.535.172.819.172.26 0 .515-.049.755-.146l8.428-4.999c.484-.384.768-.963.794-1.59V6.707z" fill="#131313"/></g></svg>