<svg width="52" height="8" viewBox="0 0 52 8" xmlns="http://www.w3.org/2000/svg">
    <g fill="#131313" fill-rule="nonzero">
        <path d="M5.022 7.999 3.454 5.656a2.719 2.719 0 0 1-.296.011H1.425V8H0V0h3.158c.665 0 1.244.114 1.738.343a2.56 2.56 0 0 1 1.135.982c.263.427.394.933.394 1.52 0 .601-.14 1.12-.422 1.553-.282.434-.685.758-1.212.972l1.765 2.628H5.022v.001zm-.516-6.33c-.322-.275-.793-.411-1.415-.411H1.425v3.189H3.09c.622 0 1.093-.14 1.415-.417.322-.278.483-.673.483-1.183 0-.511-.16-.903-.483-1.178zM13.39 6.149H9.55L8.794 8h-1.47L10.78.001h1.403L15.648 8h-1.491l-.768-1.851zm-.472-1.166L11.47 1.487l-1.437 3.496h2.885zM16.682.001h3.355c.819 0 1.546.165 2.183.497.636.332 1.13.8 1.48 1.406.351.605.526 1.305.526 2.097s-.175 1.491-.526 2.096a3.588 3.588 0 0 1-1.48 1.406c-.636.33-1.364.497-2.183.497h-3.355V.001zm3.29 6.741c.563 0 1.058-.112 1.486-.337.428-.224.757-.544.987-.96.23-.415.345-.897.345-1.446 0-.548-.115-1.03-.345-1.445a2.358 2.358 0 0 0-.987-.96c-.428-.225-.923-.337-1.486-.337h-1.864v5.485h1.864zM25.768.001h1.426V8h-1.426zM34.295 6.149h-3.838L29.7 8h-1.47L31.686.001h1.403L36.553 8h-1.491l-.767-1.851zm-.471-1.166-1.448-3.496-1.436 3.496h2.884zM44.408.001V8h-1.173l-4.233-5.417V8h-1.414V.001h1.173l4.232 5.417V0zM48.03 1.258h-2.544V.001H52v1.257h-2.544V8H48.03V1.258z"/>
    </g>
</svg>
