<?xml version="1.0" encoding="utf-8"?>
<!-- Generator: Adobe Illustrator 26.0.3, SVG Export Plug-In . SVG Version: 6.00 Build 0)  -->
<svg version="1.1" id="Layer_1" xmlns="http://www.w3.org/2000/svg" xmlns:xlink="http://www.w3.org/1999/xlink" x="0px" y="0px"
	 viewBox="0 0 700 700" style="enable-background:new 0 0 700 700;" xml:space="preserve">
<style type="text/css">
	.st0{fill:url(#SVGID_1_);}
</style>
<g>
	
		<linearGradient id="SVGID_1_" gradientUnits="userSpaceOnUse" x1="-610.5648" y1="-190" x2="-608.4398" y2="-190" gradientTransform="matrix(2.467282e-11 238.3064 238.3064 -2.467282e-11 45628.2227 145597.2812)">
		<stop  offset="0" style="stop-color:#00FFAA"/>
		<stop  offset="0.0999" style="stop-color:#00FFAA"/>
		<stop  offset="1" style="stop-color:#5F00FA"/>
	</linearGradient>
	<path class="st0" d="M437.25,352.47l153.84,73.02c2.89,1.37,1.47,5.74-1.67,5.15l-167.38-31.35c-2.26-0.42-4.01,1.97-2.9,3.99
		l81.54,149.5c1.53,2.81-2.19,5.51-4.38,3.19L379.31,432.22c-1.58-1.67-4.4-0.76-4.7,1.53l-21.91,168.87
		c-0.41,3.17-5.01,3.17-5.42,0l-21.91-168.87c-0.3-2.28-3.11-3.2-4.7-1.53L203.71,555.97c-2.2,2.33-5.92-0.38-4.38-3.19l81.54-149.5
		c1.1-2.02-0.64-4.42-2.9-3.99l-167.38,31.35c-3.15,0.59-4.57-3.78-1.67-5.15l153.84-73.02c2.08-0.99,2.08-3.95,0-4.94
		l-153.84-73.02c-2.89-1.37-1.47-5.74,1.67-5.15l167.38,31.35c2.26,0.42,4.01-1.97,2.9-3.99l-81.54-149.5
		c-1.53-2.81,2.19-5.51,4.38-3.19l116.98,123.75c1.58,1.67,4.4,0.76,4.7-1.53l21.91-168.87c0.41-3.17,5.01-3.17,5.42,0l21.91,168.87
		c0.3,2.28,3.11,3.2,4.7,1.53l116.98-123.75c2.2-2.33,5.92,0.38,4.38,3.19l-81.54,149.5c-1.1,2.02,0.64,4.42,2.9,3.99l167.38-31.35
		c3.15-0.59,4.57,3.78,1.67,5.15l-153.84,73.02C435.17,348.52,435.17,351.48,437.25,352.47z"/>
</g>
</svg>
