<?xml version="1.0" encoding="UTF-8"?>
<svg width="124px" height="32px" viewBox="0 0 124 32" version="1.1" xmlns="http://www.w3.org/2000/svg" xmlns:xlink="http://www.w3.org/1999/xlink">
    <title>6126C615-B220-4643-9421-55AF19E39ED3</title>
    <defs>
        <linearGradient x1="49.999895%" y1="0.149504233%" x2="49.999895%" y2="99.4411948%" id="linearGradient-1">
            <stop stop-color="#00FFAA" offset="9.99%"></stop>
            <stop stop-color="#5F00FA" offset="100%"></stop>
        </linearGradient>
        <linearGradient x1="49.999895%" y1="0.149504233%" x2="49.999895%" y2="99.4411948%" id="linearGradient-2">
            <stop stop-color="#FFFFFF" offset="9.99%"></stop>
            <stop stop-color="#FFFFFF" offset="100%"></stop>
        </linearGradient>
    </defs>
    <g id="Mine" stroke="none" stroke-width="1" fill="none" fill-rule="evenodd">
        <g id="03-2-DEPOSIT" transform="translate(-30.000000, -9.000000)" fill-rule="nonzero">
            <g id="Radiant-logo" transform="translate(30.000000, 9.000000)">
                <g id="Group" transform="translate(37.450712, 9.622218)" fill="#FFFFFF">
                    <path d="M8.34521019,12.7555633 L5.73982949,9.02000549 C5.63113876,9.03279303 5.46650428,9.03758835 5.24752443,9.03758835 L2.36881852,9.03758835 L2.36881852,12.7555633 L0,12.7555633 L0,0 L5.24752443,0 C6.35361243,0 7.31584505,0.182222333 8.1358207,0.546667 C8.95579634,0.911111666 9.58396481,1.43380204 10.0219245,2.11313969 C10.4598842,2.79407578 10.6772657,3.60128874 10.6772657,4.53637703 C10.6772657,5.49544194 10.4439003,6.32183621 9.97557111,7.01396139 C9.50724194,7.70608657 8.83751525,8.22238318 7.96159585,8.56285122 L10.8946471,12.7539649 L8.34521019,12.7539649 L8.34521019,12.7555633 Z M7.48847151,2.66140513 C6.95300983,2.22343215 6.16979723,2.00604411 5.13723531,2.00604411 L2.36722013,2.00604411 L2.36722013,7.09068658 L5.13723531,7.09068658 C6.16979723,7.09068658 6.95300983,6.86850321 7.48847151,6.42573491 C8.02233479,5.98296661 8.29086482,5.35318065 8.29086482,4.53957392 C8.29086482,3.72436874 8.02393318,3.09937811 7.48847151,2.66140513 Z" id="Shape"></path>
                    <path d="M22.2496315,9.80484028 L15.8720431,9.80484028 L14.6141078,12.7571618 L12.1717632,12.7571618 L17.9115927,0.00159844152 L20.2436482,0.00159844152 L26.0026584,12.7571618 L23.5251491,12.7571618 L22.2496315,9.80484028 Z M21.4664189,7.94585279 L19.0608373,2.37048877 L16.6728381,7.94585279 L21.4664189,7.94585279 Z" id="Shape"></path>
                    <path d="M27.7225293,0.00159844152 L33.2977243,0.00159844152 C34.6579568,0.00159844152 35.866342,0.265341292 36.9244782,0.794425435 C37.981016,1.32350958 38.8009916,2.06998177 39.3844051,3.03544045 C39.9678186,4.00089912 40.2587261,5.1166113 40.2587261,6.3793801 C40.2587261,7.64374735 39.9678186,8.75786109 39.3844051,9.72331976 C38.8009916,10.6887784 37.981016,11.4368491 36.9244782,11.9643348 C35.8679404,12.4918205 34.6579568,12.7571618 33.2977243,12.7571618 L27.7225293,12.7571618 L27.7225293,0.00159844152 Z M33.1890336,10.7511177 C34.1240935,10.7511177 34.947266,10.5720922 35.6585509,10.2140413 C36.3698358,9.85599041 36.9164862,9.34608756 37.2985021,8.68273433 C37.6805181,8.02097954 37.8723253,7.25212917 37.8723253,6.37778166 C37.8723253,5.50343415 37.6805181,4.73458378 37.2985021,4.07282899 C36.9164862,3.4110742 36.3698358,2.90117136 35.6585509,2.54152202 C34.947266,2.18347112 34.1240935,2.00444567 33.1890336,2.00444567 L30.0913478,2.00444567 L30.0913478,10.7511177 L33.1890336,10.7511177 Z" id="Shape"></path>
                    <polygon id="Path" points="42.8209502 0.00159844152 45.1897687 0.00159844152 45.1897687 12.7571618 42.8209502 12.7571618"></polygon>
                    <path d="M56.9907047,9.80484028 L50.6131164,9.80484028 L49.355181,12.7571618 L46.9128364,12.7571618 L52.6526659,0.00159844152 L54.9847214,0.00159844152 L60.7421332,12.7571618 L58.264624,12.7571618 L56.9907047,9.80484028 Z M56.2074921,7.94585279 L53.8019105,2.37048877 L51.4155097,7.94585279 L56.2074921,7.94585279 Z" id="Shape"></path>
                    <polygon id="Path" points="73.7962094 0.00159844152 73.7962094 12.7571618 71.8461698 12.7571618 64.8132404 4.1191838 64.8132404 12.7571618 62.4620042 12.7571618 62.4620042 0.00159844152 64.4120437 0.00159844152 71.4449732 8.63957641 71.4449732 0.00159844152"></polygon>
                    <polygon id="Path" points="79.8157577 2.00604411 75.588008 2.00604411 75.588008 0.00159844152 86.4123258 0.00159844152 86.4123258 2.00604411 82.1845762 2.00604411 82.1845762 12.7571618 79.8157577 12.7571618 79.8157577 2.00604411"></polygon>
                </g>
                <path d="M20.6990531,16.1550488 L30.3517488,20.7361822 C30.5339656,20.8224981 30.4444556,21.0958316 30.2462548,21.0590674 L19.7448124,19.0913859 C19.6025554,19.0642124 19.4938647,19.2144659 19.5625956,19.3423412 L24.6790518,28.7219961 C24.7749554,28.8978246 24.54159,29.0672594 24.4041282,28.9218012 L17.0643072,21.1581708 C16.9652069,21.0526736 16.7877852,21.1102175 16.7702029,21.2540773 L15.3955849,31.8501461 C15.3700106,32.0499513 15.0807014,32.0499513 15.0551271,31.8501461 L13.6805091,21.2540773 C13.6613284,21.1102175 13.4855052,21.0526736 13.3864048,21.1581708 L6.04658384,28.9218012 C5.90912204,29.0672594 5.67575665,28.8978246 5.77166023,28.7219961 L10.8881164,19.3423412 C10.9568473,19.2160643 10.8481566,19.0658108 10.7058996,19.0913859 L0.20445719,21.0590674 C0.00625644971,21.0958316 -0.0816551688,20.8224981 0.0989632474,20.7361822 L9.75165896,16.1550488 C9.88272719,16.0927096 9.88272719,15.9072904 9.75165896,15.8449512 L0.0989632474,11.2638178 C-0.0832535619,11.1775019 0.00625644971,10.9041684 0.20445719,10.9409326 L10.7058996,12.9086141 C10.8481566,12.9357876 10.9568473,12.7855341 10.8881164,12.6576588 L5.77166023,3.27800395 C5.67575665,3.10217538 5.90912204,2.93274058 6.04658384,3.07819876 L13.3864048,10.8418292 C13.4855052,10.9473264 13.6629268,10.8897825 13.6805091,10.7459227 L15.0551271,0.149853892 C15.0807014,-0.0499512975 15.3700106,-0.0499512975 15.3955849,0.149853892 L16.7702029,10.7459227 C16.7893836,10.8897825 16.9652069,10.9473264 17.0643072,10.8418292 L24.4041282,3.07819876 C24.54159,2.93274058 24.7749554,3.10217538 24.6790518,3.27800395 L19.5625956,12.6576588 C19.4938647,12.7839357 19.6025554,12.9341892 19.7448124,12.9086141 L30.2462548,10.9409326 C30.4444556,10.9041684 30.5323672,11.1775019 30.3517488,11.2638178 L20.6990531,15.8449512 C20.5695832,15.9072904 20.5695832,16.0927096 20.6990531,16.1550488 Z" id="Path" fill="url(#linearGradient-2)"></path>
            </g>
        </g>
    </g>
</svg>