<svg width="30" height="30" viewBox="0 0 30 30" xmlns="http://www.w3.org/2000/svg">
    <g fill="none" fill-rule="evenodd">
        <circle fill="#E2E2E2" cx="15" cy="15" r="15"/>
        <g stroke="#000" stroke-linecap="round" stroke-linejoin="round" stroke-width="1.2">
            <g transform="translate(12.615 11.47)">
                <ellipse cx="5.192" cy="2.306" rx="5.192" ry="2.306"/>
                <path d="M0 2.306v6.919c0 1.268 2.308 2.306 5.192 2.306 2.885 0 5.193-1.038 5.193-2.306V2.306"/>
                <path d="M10.385 5.765c0 1.269-2.308 2.306-5.193 2.306C2.308 8.071 0 7.034 0 5.765"/>
            </g>
            <path d="M17.692 9.163a7.816 7.816 0 0 0-4.5-1.153C10.32 8.01 8 9.048 8 10.316c0 .68.67 1.292 1.73 1.73"/>
            <path d="M9.73 18.964C8.67 18.526 8 17.915 8 17.234v-6.918"/>
            <path d="M9.73 15.505C8.67 15.067 8 14.455 8 13.775"/>
        </g>
    </g>
</svg>
