<svg width="50" height="50" viewBox="0 0 50 50" xmlns="http://www.w3.org/2000/svg"><defs><radialGradient cx="50%" cy="50%" fx="50%" fy="50%" r="50.489%" id="a"><stop stop-color="#0FA" offset="0%"/><stop stop-color="#5F00FA" offset="100%"/></radialGradient></defs><g fill="none"><circle fill="url(#a)" cx="25" cy="25" r="25"/><path d="M31.293 25.178l11.094 5.266c.208.1.105.414-.121.372l-12.071-2.261a.197.197 0 00-.21.288l5.88 10.781c.112.203-.157.398-.315.23l-8.436-8.925a.197.197 0 00-.338.11l-1.58 12.178c-.03.23-.361.23-.391 0l-1.58-12.178a.197.197 0 00-.338-.11l-8.437 8.924c-.158.168-.427-.026-.316-.23l5.88-10.78a.197.197 0 00-.209-.289l-12.07 2.261c-.228.043-.33-.273-.122-.372l11.095-5.266a.197.197 0 000-.355L7.612 19.556c-.208-.1-.106-.414.121-.372l12.071 2.261c.163.03.29-.143.21-.288l-5.882-10.781c-.11-.203.158-.398.316-.23l8.437 8.924c.114.12.317.055.338-.11l1.58-12.178c.03-.23.361-.23.391 0l1.58 12.178c.022.165.224.23.338.11l8.437-8.923c.158-.168.427.026.316.23l-5.88 10.78a.197.197 0 00.209.289l12.07-2.261c.227-.043.33.273.122.372l-11.095 5.266a.197.197 0 000 .355z" fill="#FFF"/></g></svg>